<svg height='100px' width='100px'  fill="#000000" xmlns="http://www.w3.org/2000/svg" viewBox="0 0 66 66" x="0px" y="0px"><title>Artboard 26</title><g data-name="Layer 27"><path d="M33.63,37.22a1,1,0,0,0-1.26,0l-27,22a1,1,0,0,0,1.26,1.56L33,39.29,59.37,60.78A1,1,0,0,0,60,61a1,1,0,0,0,.63-1.78Z"></path><path d="M65,25v0a1.08,1.08,0,0,0-.07-.31l0-.06a1.07,1.07,0,0,0-.19-.28l0,0a.79.79,0,0,0-.15-.12L54,17.45V6a1,1,0,0,0-1-1H39.3L33.55,1.17a1,1,0,0,0-1.1,0L26.7,5H13a1,1,0,0,0-1,1V17.45L1.46,24.16a.79.79,0,0,0-.15.12l0,0a1.07,1.07,0,0,0-.19.28l0,.06A1.08,1.08,0,0,0,1,25V64a1,1,0,0,0,1,1H64a1,1,0,0,0,1-1V25ZM33,3.2,35.7,5H30.3ZM3,63V27.06L20.38,40.79A1,1,0,0,0,21,41a1,1,0,0,0,.78-.38,1,1,0,0,0-.16-1.41L3.73,25.09,12,19.82V27a1,1,0,0,0,2,0V7H52V27a1,1,0,0,0,2,0V19.82l8.27,5.27L44.38,39.21a1,1,0,0,0-.16,1.41A1,1,0,0,0,45,41a1,1,0,0,0,.62-.21L63,27.06V63Z"></path><path d="M33,35a1,1,0,0,0,0-2A11,11,0,0,1,22,21.57,11.17,11.17,0,0,1,32.57,11,11,11,0,0,1,44,22v4.5a2.5,2.5,0,0,1-5,0V22a1,1,0,0,0-2,0,4,4,0,1,1-4-4,1,1,0,0,0,0-2,6,6,0,1,0,4,10.46v0a4.5,4.5,0,0,0,9,0V22A13,13,0,1,0,33,35Z"></path></g></svg>