<?xml version="1.0" encoding="utf-8"?>
<!-- Generator: Adobe Illustrator 23.1.1, SVG Export Plug-In . SVG Version: 6.00 Build 0)  -->
<svg version="1.1" id="Ebene_1" xmlns="http://www.w3.org/2000/svg" xmlns:xlink="http://www.w3.org/1999/xlink" x="0px" y="0px"
	 viewBox="0 0 60 60" style="enable-background:new 0 0 60 60;" xml:space="preserve">
<style type="text/css">
	.st0{fill-rule:evenodd;clip-rule:evenodd;fill:#231E1B;}
</style>
<path class="st0" d="M29.67,2.01C14.3,2.01,1.84,15.13,1.84,31.32c0,12.95,7.97,23.93,19.03,27.81c1.39,0.27,1.9-0.64,1.9-1.41
	c0-0.7-0.02-2.54-0.04-4.98C15,54.5,13.36,48.8,13.36,48.8c-1.27-3.39-3.09-4.29-3.09-4.29c-2.53-1.82,0.19-1.78,0.19-1.78
	c2.79,0.21,4.26,3.02,4.26,3.02c2.48,4.48,6.51,3.19,8.1,2.43c0.25-1.89,0.97-3.19,1.77-3.92c-6.18-0.74-12.68-3.25-12.68-14.48
	c0-3.2,1.08-5.82,2.86-7.86c-0.29-0.74-1.24-3.72,0.27-7.76c0,0,2.34-0.79,7.65,3c2.22-0.65,4.6-0.98,6.97-0.99
	c2.36,0.01,4.74,0.34,6.97,0.99c5.31-3.79,7.64-3,7.64-3c1.52,4.03,0.56,7.01,0.28,7.76c1.78,2.05,2.86,4.66,2.86,7.86
	c0,11.26-6.51,13.74-12.71,14.46c1,0.9,1.89,2.69,1.89,5.43c0,3.92-0.03,7.08-0.03,8.04c0,0.78,0.5,1.7,1.91,1.41
	c11.05-3.88,19.01-14.86,19.01-27.8C57.5,15.13,45.04,2.01,29.67,2.01z"/>
</svg>
