<svg height='100px' width='100px'  fill="#000000" xmlns="http://www.w3.org/2000/svg" xmlns:xlink="http://www.w3.org/1999/xlink" version="1.1" x="0px" y="0px" viewBox="0 0 100 100" enable-background="new 0 0 100 100" xml:space="preserve"><g><g><g><path fill="none" d="M71.467,68.366c-1.498-2.406-4.674-3.143-7.079-1.646l-9.698,6.039c-0.755,0.47-1.732,0.36-2.363-0.267     c-3.926-3.906-7.913-9.092-11.851-15.414c-3.965-6.367-6.878-12.265-8.659-17.531c-0.285-0.841,0.047-1.769,0.802-2.238     l9.693-6.036c2.405-1.498,3.143-4.674,1.645-7.079L35.896,11.25c-0.972-1.561-2.653-2.421-4.37-2.421     c-0.927,0-1.865,0.251-2.708,0.775l-2.305,1.435c-0.755,0.47-1.377,1.131-1.799,1.912c-0.057,0.106-0.123,0.205-0.199,0.298     l-0.269,0.336c-2.01,2.583-3.424,5.858-4.088,9.47c-1.92,10.425,2.055,23.655,11.812,39.321     c10.127,16.263,20.618,25.746,31.18,28.187c3.388,0.783,6.635,0.811,9.646,0.079c0.114-0.027,0.23-0.044,0.346-0.05     c0.86-0.047,1.703-0.313,2.438-0.771l2.303-1.433c1.165-0.726,1.978-1.862,2.289-3.199c0.311-1.337,0.082-2.714-0.644-3.879     L71.467,68.366z"></path><path d="M82.779,79.284L74.718,66.34c-2.614-4.196-8.156-5.486-12.354-2.871l-8.392,5.226c-3.38-3.562-6.821-8.144-10.245-13.642     c-3.451-5.541-6.062-10.682-7.776-15.308l8.386-5.223c4.198-2.613,5.486-8.156,2.872-12.354L39.147,9.225     c-2.615-4.197-8.156-5.486-12.353-2.871l-2.305,1.435c-1.266,0.788-2.317,1.884-3.052,3.176     c-0.072,0.089-0.143,0.179-0.214,0.269c-2.386,3.067-4.057,6.914-4.832,11.127c-2.098,11.393,2.05,25.538,12.327,42.04     c10.685,17.157,21.979,27.215,33.569,29.892C64.327,94.764,66.331,95,68.285,95c1.795,0,3.548-0.198,5.247-0.597     c1.439-0.108,2.843-0.567,4.072-1.332l2.303-1.433c2.034-1.267,3.453-3.249,3.995-5.582     C84.445,83.722,84.046,81.316,82.779,79.284z M80.172,85.188c-0.311,1.337-1.124,2.472-2.289,3.199L75.58,89.82     c-0.735,0.458-1.578,0.725-2.438,0.771c-0.117,0.007-0.233,0.023-0.346,0.05c-3.012,0.731-6.258,0.703-9.646-0.079     c-10.562-2.44-21.053-11.923-31.18-28.187C22.212,46.71,18.237,33.481,20.157,23.055c0.665-3.612,2.079-6.886,4.088-9.47     l0.269-0.336c0.076-0.094,0.142-0.193,0.199-0.298c0.422-0.781,1.044-1.442,1.799-1.912l2.305-1.435     c0.843-0.525,1.781-0.775,2.708-0.775c1.717,0,3.398,0.859,4.37,2.421l8.061,12.943c1.498,2.405,0.76,5.581-1.645,7.079     l-9.693,6.036c-0.755,0.469-1.086,1.397-0.802,2.238c1.78,5.266,4.694,11.164,8.659,17.531     c3.938,6.322,7.925,11.507,11.851,15.414c0.631,0.627,1.608,0.738,2.363,0.267l9.698-6.039c2.405-1.497,5.581-0.76,7.079,1.646     l8.061,12.943C80.254,82.474,80.483,83.851,80.172,85.188z"></path></g></g></g></svg>