<svg xmlns="http://www.w3.org/2000/svg" xmlns:xlink="http://www.w3.org/1999/xlink" width="100" height="100" viewBox="0 0 100 100"><g transform="translate(50 50) scale(0.69 0.69) rotate(105) translate(-50 -50)" style="fill:#000000"><svg fill="#000000" xmlns="http://www.w3.org/2000/svg" xmlns:xlink="http://www.w3.org/1999/xlink" xml:space="preserve" version="1.1" style="shape-rendering:geometricPrecision;text-rendering:geometricPrecision;image-rendering:optimizeQuality;" viewBox="0 0 7666 7666" x="0px" y="0px" fill-rule="evenodd" clip-rule="evenodd"><defs><style type="text/css">
   
    .fil0 {fill:#000000;fill-rule:nonzero}
   
  </style></defs><g><path class="fil0" d="M3833 0c1058,0 2017,429 2710,1123 694,693 1123,1652 1123,2710 0,1058 -429,2017 -1123,2710 -693,694 -1652,1123 -2710,1123 -1058,0 -2017,-429 -2710,-1123 -694,-693 -1123,-1652 -1123,-2710 0,-1058 429,-2017 1123,-2710 693,-694 1652,-1123 2710,-1123zm2484 1349c-635,-636 -1514,-1029 -2484,-1029 -970,0 -1849,393 -2484,1029 -636,635 -1029,1514 -1029,2484 0,970 393,1849 1029,2484 635,636 1514,1029 2484,1029 970,0 1849,-393 2484,-1029 636,-635 1029,-1514 1029,-2484 0,-970 -393,-1849 -1029,-2484z"></path><path class="fil0" d="M4072 3234l-878 -757 0 2295 693 -659c25,-23 57,-39 94,-43l951 -94 -860 -742zm-933 -1226l2283 1970c67,57 74,158 16,224 -27,33 -65,51 -104,55l-1027 102 465 1014c52,115 2,250 -113,303 -114,52 -250,2 -302,-113l-465 -1014 -747 711c-64,60 -165,58 -226,-6 -32,-34 -47,-78 -44,-122l1 -3003c0,-88 71,-159 159,-159 40,0 76,14 104,38z"></path></g></svg></g></svg>